<svg xmlns="http://www.w3.org/2000/svg" width="34" height="34" viewBox="0 0 34 34"><defs><style>.a{fill:#0070f3;}.b{fill:#f1f2f2;}</style></defs><g transform="translate(1794 -1417)"><circle class="a" cx="17" cy="17" r="17" transform="translate(-1794 1417)"/><g transform="translate(-1785.884 1424.188)"><path class="b" d="M45.823,34.956v6.935H41.8v-6.47c0-1.625-.581-2.734-2.036-2.734a2.2,2.2,0,0,0-2.062,1.47,2.752,2.752,0,0,0-.133.98v6.754H33.55s.054-10.958,0-12.093h4.021v1.714c-.008.013-.019.027-.027.04h.027v-.04a3.992,3.992,0,0,1,3.624-2c2.645,0,4.629,1.728,4.629,5.442ZM29.343,23.969a2.1,2.1,0,1,0-.053,4.179h.026a2.1,2.1,0,1,0,.027-4.179ZM27.307,41.891h4.02V29.8h-4.02Z" transform="translate(-27.068 -23.969)"/></g></g></svg>