<svg xmlns="http://www.w3.org/2000/svg" width="34" height="34" viewBox="0 0 34 34"><path d="M23.259,26.663a3.4,3.4,0,1,0-3.4-3.4A3.409,3.409,0,0,0,23.259,26.663Z" transform="translate(-6.26 -6.259)"/><path d="M34.169,17.237V13.96h-.427l-2.851.009.011,3.278Z" transform="translate(-9.738 -4.401)"/><path d="M17,0A17,17,0,1,0,34,17,17.019,17.019,0,0,0,17,0Zm9.668,15.016v7.916a3.741,3.741,0,0,1-3.737,3.737H11.069a3.74,3.74,0,0,1-3.737-3.737V11.069a3.74,3.74,0,0,1,3.737-3.737H22.931a3.741,3.741,0,0,1,3.737,3.737Z"/><path d="M26.531,23.913a5.288,5.288,0,1,1-10.187-1.984H13.457v7.916A1.853,1.853,0,0,0,15.31,31.7H27.172a1.854,1.854,0,0,0,1.853-1.852V21.929H26.137A5.216,5.216,0,0,1,26.531,23.913Z" transform="translate(-4.242 -6.913)"/></svg>