<svg xmlns="http://www.w3.org/2000/svg" width="34" height="34" viewBox="0 0 34 34"><defs><style>.a{fill:#f1f2f2;}</style></defs><g transform="translate(-0.001)"><circle cx="17" cy="17" r="17" transform="translate(0.001 0)"/><g transform="translate(7.608 10.312)"><path class="a" d="M44.909,35.934a8.107,8.107,0,0,1-2.334.639,4.075,4.075,0,0,0,1.787-2.248,8.135,8.135,0,0,1-2.58.986,4.067,4.067,0,0,0-6.924,3.707,11.535,11.535,0,0,1-8.376-4.246A4.068,4.068,0,0,0,27.739,40.2a4.035,4.035,0,0,1-1.84-.509c0,.017,0,.035,0,.052a4.066,4.066,0,0,0,3.26,3.984,4.079,4.079,0,0,1-1.835.07,4.068,4.068,0,0,0,3.8,2.822A8.2,8.2,0,0,1,25.1,48.3a11.556,11.556,0,0,0,17.79-9.736c0-.176,0-.352-.012-.525a8.24,8.24,0,0,0,2.028-2.1Z" transform="translate(-25.103 -34.028)"/></g></g></svg>